<svg xmlns="http://www.w3.org/2000/svg" width="1024" height="1024" viewBox="0 0 1024 1024">
  <defs>
    <linearGradient id="bg" x1="0" y1="0" x2="0" y2="1">
      <stop offset="0%" stop-color="#232529"/>
      <stop offset="55%" stop-color="#17181c"/>
      <stop offset="100%" stop-color="#0c0d10"/>
    </linearGradient>
    <linearGradient id="sheen" x1="0" y1="0" x2="0" y2="1">
      <stop offset="0%" stop-color="#ffffff" stop-opacity="0.10"/>
      <stop offset="18%" stop-color="#ffffff" stop-opacity="0.0"/>
    </linearGradient>
    <linearGradient id="accent" gradientUnits="userSpaceOnUse" x1="300" y1="300" x2="760" y2="660">
      <stop offset="0%" stop-color="#6bb2ff"/>
      <stop offset="100%" stop-color="#3d84e0"/>
    </linearGradient>
    <filter id="glow" x="-50%" y="-50%" width="200%" height="200%">
      <feGaussianBlur stdDeviation="14" result="blur"/>
      <feMerge>
        <feMergeNode in="blur"/>
        <feMergeNode in="SourceGraphic"/>
      </feMerge>
    </filter>
  </defs>

  <path d="M 1024.00,512.00 L 1023.90,640.26 L 1023.60,681.21 L 1023.09,710.94 L 1022.38,735.10 L 1021.47,755.78 L 1020.35,774.04 L 1019.03,790.46 L 1017.50,805.45 L 1015.77,819.26 L 1013.83,832.08 L 1011.67,844.06 L 1009.30,855.30 L 1006.72,865.88 L 1003.92,875.87 L 1000.90,885.33 L 997.66,894.30 L 994.19,902.81 L 990.49,910.91 L 986.56,918.62 L 982.38,925.96 L 977.97,932.95 L 973.30,939.60 L 968.37,945.94 L 963.18,951.98 L 957.72,957.72 L 951.98,963.18 L 945.94,968.37 L 939.60,973.30 L 932.95,977.97 L 925.96,982.38 L 918.62,986.56 L 910.91,990.49 L 902.81,994.19 L 894.30,997.66 L 885.33,1000.90 L 875.87,1003.92 L 865.88,1006.72 L 855.30,1009.30 L 844.06,1011.67 L 832.08,1013.83 L 819.26,1015.77 L 805.45,1017.50 L 790.46,1019.03 L 774.04,1020.35 L 755.78,1021.47 L 735.10,1022.38 L 710.94,1023.09 L 681.21,1023.60 L 640.26,1023.90 L 512.00,1024.00 L 383.74,1023.90 L 342.79,1023.60 L 313.06,1023.09 L 288.90,1022.38 L 268.22,1021.47 L 249.96,1020.35 L 233.54,1019.03 L 218.55,1017.50 L 204.74,1015.77 L 191.92,1013.83 L 179.94,1011.67 L 168.70,1009.30 L 158.12,1006.72 L 148.13,1003.92 L 138.67,1000.90 L 129.70,997.66 L 121.19,994.19 L 113.09,990.49 L 105.38,986.56 L 98.04,982.38 L 91.05,977.97 L 84.40,973.30 L 78.06,968.37 L 72.02,963.18 L 66.28,957.72 L 60.82,951.98 L 55.63,945.94 L 50.70,939.60 L 46.03,932.95 L 41.62,925.96 L 37.44,918.62 L 33.51,910.91 L 29.81,902.81 L 26.34,894.30 L 23.10,885.33 L 20.08,875.87 L 17.28,865.88 L 14.70,855.30 L 12.33,844.06 L 10.17,832.08 L 8.23,819.26 L 6.50,805.45 L 4.97,790.46 L 3.65,774.04 L 2.53,755.78 L 1.62,735.10 L 0.91,710.94 L 0.40,681.21 L 0.10,640.26 L 0.00,512.00 L 0.10,383.74 L 0.40,342.79 L 0.91,313.06 L 1.62,288.90 L 2.53,268.22 L 3.65,249.96 L 4.97,233.54 L 6.50,218.55 L 8.23,204.74 L 10.17,191.92 L 12.33,179.94 L 14.70,168.70 L 17.28,158.12 L 20.08,148.13 L 23.10,138.67 L 26.34,129.70 L 29.81,121.19 L 33.51,113.09 L 37.44,105.38 L 41.62,98.04 L 46.03,91.05 L 50.70,84.40 L 55.63,78.06 L 60.82,72.02 L 66.28,66.28 L 72.02,60.82 L 78.06,55.63 L 84.40,50.70 L 91.05,46.03 L 98.04,41.62 L 105.38,37.44 L 113.09,33.51 L 121.19,29.81 L 129.70,26.34 L 138.67,23.10 L 148.13,20.08 L 158.12,17.28 L 168.70,14.70 L 179.94,12.33 L 191.92,10.17 L 204.74,8.23 L 218.55,6.50 L 233.54,4.97 L 249.96,3.65 L 268.22,2.53 L 288.90,1.62 L 313.06,0.91 L 342.79,0.40 L 383.74,0.10 L 512.00,0.00 L 640.26,0.10 L 681.21,0.40 L 710.94,0.91 L 735.10,1.62 L 755.78,2.53 L 774.04,3.65 L 790.46,4.97 L 805.45,6.50 L 819.26,8.23 L 832.08,10.17 L 844.06,12.33 L 855.30,14.70 L 865.88,17.28 L 875.87,20.08 L 885.33,23.10 L 894.30,26.34 L 902.81,29.81 L 910.91,33.51 L 918.62,37.44 L 925.96,41.62 L 932.95,46.03 L 939.60,50.70 L 945.94,55.63 L 951.98,60.82 L 957.72,66.28 L 963.18,72.02 L 968.37,78.06 L 973.30,84.40 L 977.97,91.05 L 982.38,98.04 L 986.56,105.38 L 990.49,113.09 L 994.19,121.19 L 997.66,129.70 L 1000.90,138.67 L 1003.92,148.13 L 1006.72,158.12 L 1009.30,168.70 L 1011.67,179.94 L 1013.83,191.92 L 1015.77,204.74 L 1017.50,218.55 L 1019.03,233.54 L 1020.35,249.96 L 1021.47,268.22 L 1022.38,288.90 L 1023.09,313.06 L 1023.60,342.79 L 1023.90,383.74 Z" fill="url(#bg)"/>
  <path d="M 1024.00,512.00 L 1023.90,640.26 L 1023.60,681.21 L 1023.09,710.94 L 1022.38,735.10 L 1021.47,755.78 L 1020.35,774.04 L 1019.03,790.46 L 1017.50,805.45 L 1015.77,819.26 L 1013.83,832.08 L 1011.67,844.06 L 1009.30,855.30 L 1006.72,865.88 L 1003.92,875.87 L 1000.90,885.33 L 997.66,894.30 L 994.19,902.81 L 990.49,910.91 L 986.56,918.62 L 982.38,925.96 L 977.97,932.95 L 973.30,939.60 L 968.37,945.94 L 963.18,951.98 L 957.72,957.72 L 951.98,963.18 L 945.94,968.37 L 939.60,973.30 L 932.95,977.97 L 925.96,982.38 L 918.62,986.56 L 910.91,990.49 L 902.81,994.19 L 894.30,997.66 L 885.33,1000.90 L 875.87,1003.92 L 865.88,1006.72 L 855.30,1009.30 L 844.06,1011.67 L 832.08,1013.83 L 819.26,1015.77 L 805.45,1017.50 L 790.46,1019.03 L 774.04,1020.35 L 755.78,1021.47 L 735.10,1022.38 L 710.94,1023.09 L 681.21,1023.60 L 640.26,1023.90 L 512.00,1024.00 L 383.74,1023.90 L 342.79,1023.60 L 313.06,1023.09 L 288.90,1022.38 L 268.22,1021.47 L 249.96,1020.35 L 233.54,1019.03 L 218.55,1017.50 L 204.74,1015.77 L 191.92,1013.83 L 179.94,1011.67 L 168.70,1009.30 L 158.12,1006.72 L 148.13,1003.92 L 138.67,1000.90 L 129.70,997.66 L 121.19,994.19 L 113.09,990.49 L 105.38,986.56 L 98.04,982.38 L 91.05,977.97 L 84.40,973.30 L 78.06,968.37 L 72.02,963.18 L 66.28,957.72 L 60.82,951.98 L 55.63,945.94 L 50.70,939.60 L 46.03,932.95 L 41.62,925.96 L 37.44,918.62 L 33.51,910.91 L 29.81,902.81 L 26.34,894.30 L 23.10,885.33 L 20.08,875.87 L 17.28,865.88 L 14.70,855.30 L 12.33,844.06 L 10.17,832.08 L 8.23,819.26 L 6.50,805.45 L 4.97,790.46 L 3.65,774.04 L 2.53,755.78 L 1.62,735.10 L 0.91,710.94 L 0.40,681.21 L 0.10,640.26 L 0.00,512.00 L 0.10,383.74 L 0.40,342.79 L 0.91,313.06 L 1.62,288.90 L 2.53,268.22 L 3.65,249.96 L 4.97,233.54 L 6.50,218.55 L 8.23,204.74 L 10.17,191.92 L 12.33,179.94 L 14.70,168.70 L 17.28,158.12 L 20.08,148.13 L 23.10,138.67 L 26.34,129.70 L 29.81,121.19 L 33.51,113.09 L 37.44,105.38 L 41.62,98.04 L 46.03,91.05 L 50.70,84.40 L 55.63,78.06 L 60.82,72.02 L 66.28,66.28 L 72.02,60.82 L 78.06,55.63 L 84.40,50.70 L 91.05,46.03 L 98.04,41.62 L 105.38,37.44 L 113.09,33.51 L 121.19,29.81 L 129.70,26.34 L 138.67,23.10 L 148.13,20.08 L 158.12,17.28 L 168.70,14.70 L 179.94,12.33 L 191.92,10.17 L 204.74,8.23 L 218.55,6.50 L 233.54,4.97 L 249.96,3.65 L 268.22,2.53 L 288.90,1.62 L 313.06,0.91 L 342.79,0.40 L 383.74,0.10 L 512.00,0.00 L 640.26,0.10 L 681.21,0.40 L 710.94,0.91 L 735.10,1.62 L 755.78,2.53 L 774.04,3.65 L 790.46,4.97 L 805.45,6.50 L 819.26,8.23 L 832.08,10.17 L 844.06,12.33 L 855.30,14.70 L 865.88,17.28 L 875.87,20.08 L 885.33,23.10 L 894.30,26.34 L 902.81,29.81 L 910.91,33.51 L 918.62,37.44 L 925.96,41.62 L 932.95,46.03 L 939.60,50.70 L 945.94,55.63 L 951.98,60.82 L 957.72,66.28 L 963.18,72.02 L 968.37,78.06 L 973.30,84.40 L 977.97,91.05 L 982.38,98.04 L 986.56,105.38 L 990.49,113.09 L 994.19,121.19 L 997.66,129.70 L 1000.90,138.67 L 1003.92,148.13 L 1006.72,158.12 L 1009.30,168.70 L 1011.67,179.94 L 1013.83,191.92 L 1015.77,204.74 L 1017.50,218.55 L 1019.03,233.54 L 1020.35,249.96 L 1021.47,268.22 L 1022.38,288.90 L 1023.09,313.06 L 1023.60,342.79 L 1023.90,383.74 Z" fill="url(#sheen)"/>

  <!-- "k" built from strokes, monospace-glyph style, matching the
       chevron-and-cursor visual language of the original ">_" mark -->
  <g filter="url(#glow)" opacity="0.55">
    <path d="M 330 290 L 330 660" fill="none" stroke="url(#accent)" stroke-width="54" stroke-linecap="round"/>
    <path d="M 540 430 L 366 560" fill="none" stroke="url(#accent)" stroke-width="54" stroke-linecap="round" stroke-linejoin="round"/>
    <path d="M 396 538 L 560 660" fill="none" stroke="url(#accent)" stroke-width="54" stroke-linecap="round" stroke-linejoin="round"/>
    <path d="M 622 660 L 748 660" fill="none" stroke="url(#accent)" stroke-width="54" stroke-linecap="round"/>
  </g>

  <path d="M 330 290 L 330 660" fill="none" stroke="url(#accent)" stroke-width="54" stroke-linecap="round"/>
  <path d="M 540 430 L 366 560" fill="none" stroke="url(#accent)" stroke-width="54" stroke-linecap="round" stroke-linejoin="round"/>
  <path d="M 396 538 L 560 660" fill="none" stroke="url(#accent)" stroke-width="54" stroke-linecap="round" stroke-linejoin="round"/>
  <path d="M 622 660 L 748 660" fill="none" stroke="url(#accent)" stroke-width="54" stroke-linecap="round"/>
</svg>
